<?xml version="1.0" encoding="UTF-8"?>
<svg id="Capa_1" data-name="Capa 1" xmlns="http://www.w3.org/2000/svg" viewBox="0 0 30 30" width="30px">
  <path d="M17.31,24.76c0-1.6,0-3.19,0-4.79,0-.38,.1-.53,.5-.52,.83,.03,1.66,0,2.5,.02,.37,.01,.55-.08,.6-.49,.15-1.15,.33-2.3,.52-3.45,.05-.33-.04-.42-.37-.41-1.09,.02-2.17,0-3.26,.01-.37,0-.49-.12-.48-.49,.02-.81,0-1.62,0-2.43,0-1.39,.77-2.24,2.15-2.31,.58-.03,1.15-.02,1.73-.01,.29,0,.41-.1,.4-.4-.01-.96,0-1.92,0-2.88,0-.2,0-.39-.26-.43-1.8-.26-3.61-.49-5.37,.17-1.98,.74-2.92,2.32-3.2,4.36-.18,1.29-.06,2.59-.07,3.89,0,.41-.12,.54-.53,.53-.95-.03-1.91,0-2.86-.01-.31,0-.43,.1-.42,.42,.01,1.18,.01,2.35,0,3.53,0,.3,.11,.4,.41,.39,.98-.01,1.96,0,2.94-.01,.36,0,.46,.13,.46,.47,0,3.22-.01,6.44,0,9.65,0,.38-.11,.46-.47,.39C6.13,28.88,1.23,23.9,.24,17.76-.62,12.46,.87,7.89,4.66,4.16,7.13,1.73,10.15,.36,13.61,.06c4.71-.4,8.76,1.1,12.09,4.46,2.47,2.5,3.86,5.55,4.22,9.07,.64,6.22-2.67,12.3-8.19,15.04-1.26,.62-2.58,1.07-3.96,1.34-.35,.07-.48,0-.47-.39,.02-1.61,0-3.22,0-4.83Z"/>
</svg>
