<?xml version="1.0" encoding="UTF-8"?>
<svg id="Capa_1" data-name="Capa 1" xmlns="http://www.w3.org/2000/svg" viewBox="0 0 30 30" width="30px" fill="#7ac943">
  <path d="M18.76,26.24c-.05-.89,.08-1.97-.07-3.06-.09-.68-.26-1.31-.74-1.84-.25-.28,.06-.26,.21-.27,.79-.07,1.57-.22,2.34-.41,2.5-.64,3.74-2.08,4.06-4.7,.11-.89,.18-1.78,.04-2.67-.14-.84-.54-1.55-1.11-2.16-.27-.29-.36-.54-.24-.94,.32-1.11,.19-2.23-.13-3.33-.08-.27-.22-.37-.49-.37-1.03,0-1.92,.46-2.72,1.01-.72,.49-1.36,.65-2.22,.43-2.01-.49-4.05-.37-6.05,.15-.26,.07-.45,.03-.68-.11-.91-.55-1.8-1.15-2.85-1.41-.89-.22-1.01-.14-1.23,.76-.23,.98-.23,1.96-.01,2.94,.07,.31,.01,.53-.2,.78-.68,.76-1.03,1.67-1.07,2.7-.06,1.34,.07,2.66,.51,3.94,.36,1.05,1,1.83,1.98,2.33,1.19,.6,2.45,.97,3.78,1.06,.12,0,.27-.03,.33,.09,.07,.14-.08,.22-.15,.3-.34,.43-.51,.94-.61,1.47-.06,.28-.2,.42-.46,.5-.62,.2-1.27,.28-1.91,.2-1.01-.12-1.64-.82-2.15-1.64-.48-.78-1.09-1.34-1.99-1.56-.25-.06-.48-.03-.71,.02-.22,.04-.26,.18-.12,.35,.15,.17,.31,.35,.49,.48,.74,.55,1.29,1.26,1.58,2.14,.46,1.36,1.43,1.9,2.75,2.03,.7,.07,1.39,.05,2.08-.05,.26-.04,.38,.06,.38,.32,0,1.17,.02,2.34,0,3.51-.01,.6-.59,.91-1.24,.68-1.61-.58-3.1-1.37-4.43-2.47C2.34,24.69,.46,21.11,.08,16.74-.35,11.89,.96,7.62,4.4,4.16,6.61,1.94,9.3,.67,12.34,.21c3.4-.52,6.69-.09,9.73,1.57,4.36,2.38,7.04,6.08,7.74,11.14,.59,4.21-.28,8.1-2.69,11.58-1.8,2.59-4.22,4.36-7.14,5.4-.76,.27-1.23-.09-1.23-.92,0-.85,0-1.71,0-2.76Z"/>
</svg>
