<?xml version="1.0" encoding="UTF-8"?>
<svg id="Capa_1" data-name="Capa 1" xmlns="http://www.w3.org/2000/svg" viewBox="0 0 30 30.02" width="30px" fill="#7ac943">
  <path d="M29.96,15.05c0,2.05,.03,4.1,0,6.14-.04,2.19-.67,4.18-2.14,5.85-1.42,1.61-3.2,2.59-5.32,2.75-4.15,.3-8.3,.27-12.45,.12-1.02-.04-2.04-.02-3.06-.18-3.57-.58-6.46-3.66-6.78-7.27-.09-1.06-.16-2.13-.17-3.2C0,16.4-.01,13.53,.03,10.67c.02-1.26,.02-2.52,.25-3.77C.98,3.11,4.28,.25,8.14,.1,12.44-.07,16.75,.02,21.05,.04c2.19,.01,4.19,.61,5.88,2.05,1.79,1.53,2.76,3.5,2.96,5.84,.2,2.37,.06,4.75,.07,7.12Zm-2.7,.47c0-1.68,.04-2.85-.01-4.02-.06-1.43-.04-2.88-.34-4.29-.47-2.18-1.77-3.54-3.92-4.08-.85-.21-1.73-.28-2.6-.29-2.6-.05-5.19-.09-7.79-.09-1.63,0-3.26,.07-4.88,.26-1.76,.21-3.14,1.03-4.05,2.57-.51,.87-.63,1.84-.76,2.81-.16,1.18-.07,2.37-.12,3.56-.12,3.25-.08,6.5,.14,9.74,.06,.97,.25,1.94,.77,2.81,1.06,1.76,2.71,2.44,4.66,2.6,1.84,.16,3.68,.12,5.52,.15,2.19,.05,4.39-.03,6.59-.08,.64-.01,1.27-.1,1.9-.18,1.91-.23,3.34-1.2,4.17-2.94,.48-1.01,.59-2.14,.64-3.26,.1-1.93,.14-3.85,.1-5.28Z"/>
  <path d="M14.64,22.69c-3.99-.07-7.49-3.62-7.37-7.85,.13-4.56,3.98-7.64,7.87-7.56,4.33,.08,7.71,3.76,7.59,7.88-.13,4.61-4.12,7.82-8.09,7.53Zm5.32-7.68c0-2.73-2.21-4.96-4.95-4.97-2.73-.02-4.98,2.21-4.99,4.93-.01,2.75,2.22,5,4.97,5,2.73,0,4.96-2.23,4.97-4.95Z"/>
  <path d="M24.85,7.01c-.01,.98-.85,1.8-1.83,1.81-1.04,0-1.86-.82-1.86-1.87,0-.95,.88-1.77,1.88-1.74,1.03,.02,1.82,.82,1.81,1.81Z"/>
</svg>
