<?xml version="1.0" encoding="UTF-8"?>
<svg id="Capa_1" data-name="Capa 1" xmlns="http://www.w3.org/2000/svg" viewBox="0 0 30 30" width="30px">
  <path d="M15,30c-4.26,0-8.52,0-12.78,0-.89,0-1.55-.34-1.97-1.12C.08,28.57,0,28.25,0,27.89,0,19.3,0,10.7,0,2.11,0,.85,.9,0,2.22,0,8.12,0,14.03,0,19.94,0c2.58,0,5.17,0,7.75,0,1.49,0,2.31,.83,2.31,2.32,0,8.45,0,16.9,0,25.34,0,1.5-.81,2.32-2.3,2.33-4.23,0-8.46,0-12.7,0Zm1.16-16.65c-.15-.53-.08-.99-.08-1.44,0-.34-.12-.47-.47-.47-1.07,.01-2.14,.02-3.21,0-.4,0-.51,.13-.5,.52,.01,4.41,.01,8.82,0,13.23,0,.37,.11,.49,.48,.49,1.14-.02,2.29-.02,3.43,0,.39,0,.51-.11,.51-.51-.02-1.63-.02-3.27,0-4.9,.01-.9-.08-1.81,0-2.71,.15-1.67,.85-2.47,2.29-2.64,1.26-.15,2.17,.46,2.49,1.68,.17,.63,.25,1.28,.24,1.94,0,2.2,0,4.4-.02,6.59,0,.43,.13,.56,.56,.55,1.1-.03,2.2-.02,3.3,0,.36,0,.49-.11,.49-.48-.01-2.76,.01-5.52-.01-8.29-.01-1.25-.24-2.48-.8-3.62-.32-.66-.8-1.16-1.45-1.52-.8-.44-1.68-.58-2.57-.64-1.39-.1-2.65,.21-3.73,1.13-.35,.3-.62,.67-.95,1.1Zm-11.48,5.22c0,2.21,0,4.42,0,6.63,0,.34,.09,.48,.45,.47,1.17-.02,2.34-.02,3.52,0,.36,0,.45-.13,.45-.47,0-4.42,0-8.84,0-13.26,0-.4-.14-.51-.52-.5-1.11,.02-2.23,.03-3.34,0-.47-.01-.57,.15-.57,.59,.02,2.18,0,4.36,0,6.54Zm2.18-9.19c1.4,0,2.52-1.09,2.52-2.44,0-1.46-1.1-2.59-2.53-2.59-1.42,0-2.52,1.12-2.51,2.56,0,1.42,1.09,2.48,2.52,2.48Z"/>
</svg>
