<?xml version="1.0" encoding="UTF-8"?>
<svg id="Capa_1" data-name="Capa 1" xmlns="http://www.w3.org/2000/svg" viewBox="0 0 30 30" width="30px" fill="#7ac943">
  <g id="lkaxn9.tif">
    <path d="M30,15.02c0,3.83,0,7.66,0,11.49,0,2.15-1.32,3.48-3.47,3.48-7.69,0-15.39,0-23.08,0C1.33,30,0,28.66,0,26.54c0-7.69,0-15.38,0-23.08C0,1.34,1.33,0,3.45,0c7.71,0,15.42,0,23.12,0,2.09,0,3.43,1.35,3.43,3.43,0,3.86,0,7.72,0,11.58Zm-6.7-6.03c.71-.59,1.32-1.22,1.65-2.19-.78,.36-1.46,.65-2.18,.84-.32,.09-.54,.04-.8-.18-1.17-1.02-2.53-1.32-4.03-.92-1.7,.46-3.31,2.05-3.11,4.51,.06,.75,.03,.75-.73,.65-.01,0-.03,0-.04,0-3.2-.44-5.89-1.86-8.06-4.25-.17-.18-.24-.21-.36,.04-.83,1.74-.39,3.85,1.09,5.1,.13,.11,.31,.18,.33,.41-.51,.02-.97-.13-1.43-.31-.4-.16-.46-.12-.4,.32,.27,1.8,1.29,2.98,2.98,3.61,.12,.04,.31,.01,.34,.24-.46,.1-.91,.15-1.37,.11-.33-.03-.41,.07-.27,.36,.7,1.42,1.81,2.28,3.4,2.47,.13,.02,.31-.05,.36,.09,.06,.18-.15,.23-.25,.31-1.5,1.11-3.2,1.59-5.05,1.59-.25,0-.5,0-.76,0,.08,.15,.17,.21,.26,.26,1.54,.85,3.19,1.35,4.94,1.51,2.31,.21,4.57-.04,6.64-1.09,4.49-2.29,6.71-6.08,6.96-11.06,.03-.53,.13-.91,.57-1.25,.56-.43,1.06-.94,1.52-1.63-.79,.23-1.47,.5-2.22,.45Z"/>
  </g>
</svg>
